# xmcd CD database file
#
# Track frame offsets:
#	150
#	21805
#	36749
#	54342
#	67337
#	81628
#	99325
#	115811
#	154825
#	178900
#	198700
#
# Disc length: 2831 seconds
#
# Revision: 0
# Processed by: cddbd v1.5.1PL0 Copyright (c) Steve Scherf et al.
# Submitted via: CDex 1.51
#
DISCID=a30b0d0b
DTITLE=Emiliano Salvador - Pianissimo
DYEAR=2000
DGENRE=Jazz
TTITLE0=Poly
TTITLE1=Emiliano's Blues
TTITLE2=Angelica
TTITLE3=Emilianizando
TTITLE4=La Contradanza
TTITLE5=Stella By Starlight
TTITLE6=Mi Contradanza
TTITLE7=Una Manana De Domingo
TTITLE8=Tu Mi Delirio
TTITLE9=Chanomonk
TTITLE10=Neurosis
EXTD=YEAR: 2000
EXTT0=
EXTT1=
EXTT2=
EXTT3=
EXTT4=
EXTT5=
EXTT6=
EXTT7=
EXTT8=
EXTT9=
EXTT10=
PLAYORDER=
